# Blender 4.1.0
# www.blender.org
o Sphere
v -0.013446 -1.090437 -0.340077
v 0.804561 0.470069 -0.913327
v -0.007769 0.865647 0.019079
v 1.236220 0.786251 0.099771
v -0.813072 0.270772 0.986420
v -0.236007 -0.893696 0.083903
v -1.056965 0.773939 0.081775
v -1.261119 0.126620 -0.734146
v -1.086884 -0.169867 -0.882203
v -0.131130 -1.139297 -0.470838
v -0.197883 -0.032810 -1.326707
v -0.018277 0.888870 -0.398608
v 0.023896 0.623746 -1.024215
v 0.139011 0.351325 -1.324555
v -0.095394 0.193740 -1.323560
v 0.518600 0.045459 -1.393816
v 0.435674 -0.659709 -1.191798
v 0.555862 -0.732222 -1.037242
v 0.305815 -0.889903 -0.850152
v 0.206118 -0.592555 -1.272706
v 0.187725 -0.923524 -0.601551
v 0.262009 0.553314 -1.165520
v 0.788033 -0.548557 -1.053137
v 0.444135 -0.906874 -0.616608
v 0.482527 0.350176 -1.289888
v 0.577667 0.533618 -1.078784
v 0.667415 -0.322691 -1.287433
v 0.144490 0.723761 -0.431214
v 0.421673 0.686833 -0.914027
v 0.401000 0.883907 -0.427959
v 0.600879 0.836605 -0.499018
v 0.908135 -0.299200 -1.074864
v 0.642601 -0.804078 -0.793546
v 0.241222 -0.889432 -0.373168
v 0.322903 0.756996 -0.520014
v 0.620486 0.650382 -0.803323
v 0.726483 0.382529 -1.118272
v 0.769794 -0.741462 -0.562115
v 1.039941 0.147381 -0.796874
v 1.070278 -0.140696 -0.802266
v 0.938581 -0.495964 -0.842150
v 0.878609 -0.639914 -0.657307
v 0.819785 0.803156 -0.487882
v 1.154909 0.534730 -0.441667
v 1.034402 -0.394158 -0.590759
v 0.912025 -0.560412 -0.416694
v 0.578686 -0.812212 -0.347566
v 0.666161 0.977948 -0.311407
v 0.968576 0.624724 -0.540095
v 0.949891 0.393522 -0.642522
v 0.316394 0.983525 -0.234627
v 1.320643 0.520947 -0.208419
v 1.279155 0.195660 -0.384129
v 0.957990 -0.551967 -0.042196
v 0.691493 -0.601034 -0.124707
v 0.392553 -0.756902 -0.144768
v 0.671289 -0.728083 -0.259851
v 1.083208 0.831530 -0.240164
v 1.365054 -0.030232 -0.124908
v 1.246632 -0.239904 -0.187321
v 0.958681 -0.437284 -0.310919
v 0.951590 1.009552 0.049552
v 1.396271 0.479940 0.238386
v 1.300735 -0.230930 0.297736
v 1.146284 -0.432081 0.275835
v 0.580783 -0.645812 0.092145
v 1.433319 0.077767 0.131251
v 1.236054 -0.339895 -0.005130
v 0.296220 1.060242 0.036155
v 1.303071 0.437257 0.558259
v 1.375131 0.077993 0.442812
v 1.207901 -0.211780 0.545139
v 1.096123 0.908591 0.238614
v 0.651650 1.100527 0.100594
v 1.183142 0.023130 0.733234
v 0.177975 -0.521419 0.048484
v 0.092870 -0.721182 0.060940
v 0.498357 -0.639093 0.194856
v 1.205386 0.679079 0.512931
v 0.737046 -0.247374 0.862929
v 0.943035 -0.397319 0.649050
v 0.260765 -0.741719 0.323092
v 0.604171 -0.640189 0.322741
v 1.090194 0.524207 0.763292
v 1.037192 0.803938 0.592668
v 1.057999 0.253682 0.858998
v 0.989392 -0.171464 0.801200
v 0.625279 0.031429 0.995907
v 0.484750 -0.308548 0.828930
v 0.613232 -0.563575 0.672782
v 0.677301 0.400619 0.991366
v 0.881427 0.326801 0.952693
v 0.854789 0.044160 0.946352
v 0.092609 0.929515 0.354215
v 0.429243 -0.108968 0.940265
v 0.390880 -0.633845 0.751520
v 0.353571 0.964923 0.567420
v 0.237136 0.023961 0.919022
v 0.333193 0.474301 0.952105
v 0.236526 0.715373 0.791392
v 0.042396 0.624586 0.711618
v -0.039505 0.350756 0.733374
v 0.077452 -0.664995 0.342590
v 0.127774 0.326156 0.886104
v 0.110263 -0.532858 0.735328
v -0.135821 0.364895 0.850034
v -0.188022 0.177958 0.970163
v -0.184810 -0.316481 0.786302
v -0.099509 -0.531471 0.201944
v -0.056541 -0.525434 0.385759
v 0.000278 -0.745919 0.106402
v 0.019472 -0.164546 0.646414
v -0.388263 0.208581 1.055228
v -0.401887 -0.247923 0.966086
v -0.222835 -0.077369 0.975469
v -0.053153 0.731665 0.472875
v -0.276502 0.641846 0.431427
v -0.463778 -0.395330 0.842021
v -0.247236 0.592304 0.667361
v -0.196368 -0.441413 0.508705
v -0.338073 0.466590 0.912328
v -0.587522 0.268291 1.055298
v -0.042628 -0.782664 0.107896
v -0.066538 0.804970 0.120174
v -0.647452 0.471108 0.942647
v -0.713061 0.064089 1.055279
v -0.667568 -0.183534 1.006590
v -0.380897 -0.484480 0.650838
v -0.534109 0.682860 0.599691
v -0.508110 0.625893 0.757047
v -0.190768 -0.420987 0.268434
v -0.144412 -0.467080 0.272924
v -0.957498 -0.307509 0.640403
v -0.499306 -0.526651 0.495980
v -0.798271 0.563469 0.743801
v -0.999286 0.350733 0.764647
v -0.133923 -0.829257 0.110189
v -0.664753 -0.451201 0.719209
v -0.634954 0.791607 0.353891
v -0.878700 0.720621 0.325382
v -0.994085 0.477659 0.426788
v -1.132414 0.042452 0.399518
v -0.801701 -0.449773 0.559719
v -0.378892 0.804877 0.328402
v -0.667051 -0.492824 0.357671
v -0.331513 -0.564681 0.216024
v -0.939597 0.514923 0.580878
v -0.177859 -0.683201 0.190956
v -0.799287 0.882365 0.165065
v -0.434194 -0.963595 0.000664
v -0.237670 0.856369 0.208422
v -0.959406 -0.329495 0.386346
v -0.709796 0.988178 -0.007573
v -0.491789 -0.761405 0.132065
v -1.254777 -0.203356 0.132347
v -1.341065 0.145142 0.080033
v -0.534732 0.925401 0.188201
v -0.715216 -0.708132 -0.001798
v -1.228037 0.652255 -0.114280
v -1.384492 -0.037329 -0.179963
v -0.869762 -0.701641 -0.229706
v -0.678064 -0.895994 -0.107783
v -1.375602 0.294907 -0.084243
v -0.412861 0.987180 0.041047
v -0.915053 0.943106 -0.201960
v -1.029817 -0.606584 -0.180277
v -1.305734 0.526952 -0.359300
v -0.224976 -1.010496 -0.028826
v -1.005184 -0.410640 -0.776534
v -1.131770 0.654774 -0.629864
v -0.273816 1.016394 -0.195871
v -1.184151 -0.363018 -0.586056
v -0.509397 1.048725 -0.351518
v -0.581067 1.036644 -0.149793
v -0.791502 -0.907139 -0.373600
v -0.741060 0.972176 -0.520819
v -1.044168 0.530025 -0.854058
v -1.065396 0.067703 -0.957021
v -0.743790 -0.709694 -0.854411
v -0.651699 -0.975633 -0.705893
v -0.389510 -1.140638 -0.313899
v -0.463210 1.024554 -0.452378
v -0.843336 -0.809404 -0.558947
v -1.173491 0.354953 -0.810585
v -0.781599 0.290763 -1.104984
v -0.774497 0.021194 -1.118571
v -0.672863 -0.433699 -0.949737
v -0.862767 0.416177 -1.044948
v -0.408041 -0.099499 -1.139061
v -0.425185 -0.335513 -1.040577
v -0.305644 -1.041012 -0.817864
v -0.275742 0.979939 -0.518197
v -0.025598 0.878637 -0.129316
v -0.256238 0.828103 -0.800040
v -0.165260 -1.114084 -0.638373
v -0.474649 -0.864299 -0.951936
v -0.390582 -1.123253 -0.621205
v 0.004622 -1.016391 -0.717272
v -0.072103 0.843481 -0.636733
v -0.225132 -0.830461 -1.000288
v -0.251069 0.414260 -1.091244
v 0.055876 -1.008920 -0.201065
v 0.167921 -0.431610 -1.365725
v 0.066288 -0.863351 -0.860099
v 0.123269 -1.016159 -0.497961
v 0.017160 -0.914845 -0.015650
v 0.126012 -0.792748 -0.011093
v 0.111526 0.971869 0.147214
v 0.048035 -0.705800 0.099788
v -0.015914 0.831949 0.011733
v -0.049258 -0.875727 0.050160
v -0.173457 0.918802 0.030492
v -0.116424 0.866458 0.074285
v -0.105398 -1.059409 -0.146186
v -0.141781 0.569795 -0.978966
v 0.165345 -0.788881 -1.051254
v 0.024395 0.842191 -0.134520
v -0.028358 -0.380459 -1.348649
v 0.386140 -0.324569 -1.394891
v 0.092855 0.794145 -0.308931
v 0.224261 0.722850 -0.864811
v 0.182748 0.011817 -1.441860
v 0.035952 0.869256 -0.091840
v 0.721823 0.035827 -1.288854
v 0.467990 0.730974 -0.576214
v 0.255755 -0.830005 -0.233379
v 0.931982 0.226886 -0.985026
v 0.891990 0.030368 -1.133376
v 0.217096 0.880772 -0.325181
v 0.718123 0.620147 -0.642388
v 1.070087 0.110738 -0.593328
v 0.132664 -0.838354 -0.053472
v 1.221604 -0.084746 -0.368131
v 1.060419 -0.232819 -0.438885
v 0.515100 1.068818 -0.124330
v 0.812640 1.016604 -0.167982
v 0.722526 -0.648230 0.119359
v 0.422631 -0.606597 -0.002435
v 0.219647 -0.653981 -0.031366
v 1.406559 0.333926 -0.096958
v 0.114408 0.934317 -0.098603
v 0.114751 -0.757398 0.023960
v 0.345001 -0.592169 0.083555
v 0.447668 1.093614 0.206753
v 0.898635 -0.568845 0.360766
v 0.677731 -0.575534 0.482227
v 0.927803 0.980086 0.388563
v 0.432681 -0.748055 0.411053
v 0.107567 -0.552737 0.101181
v 0.284772 1.035044 0.342461
v 0.666012 -0.484140 0.650656
v 0.654090 1.071605 0.371475
v 0.712648 0.948891 0.616218
v 0.535580 -0.691307 0.574989
v 0.330507 -0.746469 0.583168
v 0.847491 0.688662 0.828188
v 0.562898 0.686977 0.886755
v 0.425653 0.232790 1.008133
v 0.428431 -0.467147 0.835160
v 0.466833 0.850735 0.746616
v 0.196347 -0.202196 0.797154
v 0.232858 -0.440314 0.823030
v 0.025528 -0.526880 0.152695
v 0.105942 0.844402 0.552710
v 0.055159 -0.312378 0.736829
v -0.029896 -0.490133 0.584876
v 0.073818 -0.661146 0.524600
v -0.029913 -0.256819 0.623805
v -0.078217 0.468996 0.646600
v 0.006747 0.124312 0.780852
v -0.002223 0.879696 0.157746
v -0.073825 -0.077086 0.855685
v -0.017235 -0.489306 0.183610
v -0.146401 0.571820 0.430316
v -0.092570 -0.363790 0.500842
v -0.110640 -0.372267 0.298545
v -0.068788 -0.472922 0.267988
v -0.468369 -0.028095 1.071616
v -0.131621 0.679980 0.314691
v -0.769635 -0.326088 0.852741
v -0.203899 -0.474452 0.225143
v -1.004458 0.069429 0.870740
v -0.918879 -0.133998 0.899279
v -0.457199 0.687943 0.446211
v -1.081842 -0.150936 0.574986
v -0.392203 -0.504701 0.322923
v -0.737236 0.656305 0.445967
v -1.121668 0.147809 0.611533
v -0.529805 -0.666193 0.146686
v -1.083730 0.344438 0.415598
v -1.067139 -0.178494 0.387781
v -0.808665 -0.575703 0.215529
v -1.010015 -0.560438 0.049162
v -1.185104 0.328692 0.304321
v -1.165418 0.568159 0.190368
v -1.266772 -0.340925 -0.128985
v -1.237295 -0.382787 -0.366252
v -0.595986 -1.034907 -0.225004
v -1.359427 0.254142 -0.500171
v -1.336017 -0.091156 -0.518389
v -0.271451 -1.127603 -0.249056
v -1.045702 -0.575414 -0.411611
v -1.075216 0.820855 -0.393567
v -0.893593 -0.594426 -0.648995
v -0.864765 0.793156 -0.770543
v -0.567681 -1.086386 -0.492052
v -0.109455 0.939028 -0.153544
v -0.838177 -0.318450 -0.974816
v -0.516355 0.918802 -0.721679
v -0.505941 -0.554143 -1.044612
v -0.626615 0.706604 -0.952712
v -0.585324 -0.214437 -1.096377
v -0.346228 0.149291 -1.158896
v -0.307775 -0.337288 -1.184919
v -0.277802 -0.542493 -1.086098
v -0.417954 0.703302 -0.969180
v -0.512739 0.340851 -1.151655
v -0.099811 -0.733966 -1.023432
v 0.011306 0.717547 -0.740701
vn 0.4109 -0.8993 0.1498
vn 0.6722 0.6496 -0.3554
vn -0.7817 0.5933 -0.1922
vn 0.7860 0.6171 -0.0383
vn -0.4885 0.3125 0.8147
vn 0.0343 -0.5948 0.8031
vn -0.6098 0.7131 0.3460
vn -0.8483 -0.0189 -0.5292
vn -0.6664 -0.3132 -0.6766
vn 0.2196 -0.9742 -0.0515
vn -0.4973 0.0337 -0.8669
vn 0.5552 0.8205 -0.1362
vn -0.2535 0.8177 -0.5169
vn -0.1248 0.5003 -0.8568
vn -0.3903 0.3408 -0.8553
vn 0.3006 0.1404 -0.9434
vn 0.2380 -0.6660 -0.7069
vn 0.3683 -0.7791 -0.5073
vn 0.0878 -0.9451 -0.3148
vn -0.0656 -0.6152 -0.7856
vn 0.3635 -0.9177 -0.1602
vn 0.0218 0.7450 -0.6667
vn 0.6260 -0.5607 -0.5419
vn 0.2487 -0.9686 0.0039
vn 0.2755 0.4844 -0.8304
vn 0.3815 0.7304 -0.5665
vn 0.4982 -0.2848 -0.8190
vn 0.0605 0.9277 -0.3685
vn 0.2026 0.9104 -0.3608
vn -0.1973 0.7569 -0.6231
vn 0.0367 0.6965 -0.7166
vn 0.7856 -0.2337 -0.5729
vn 0.4793 -0.8439 -0.2408
vn 0.3972 -0.8846 0.2442
vn -0.1778 0.8990 -0.4001
vn 0.4387 0.8647 -0.2446
vn 0.5775 0.5105 -0.6370
vn 0.5992 -0.7976 0.0697
vn 0.9287 0.2675 -0.2568
vn 0.9651 -0.0801 -0.2494
vn 0.8204 -0.4880 -0.2982
vn 0.7475 -0.6574 -0.0949
vn 0.3121 0.6657 -0.6778
vn 0.6843 0.3436 -0.6432
vn 0.9310 -0.3649 -0.0081
vn 0.7674 -0.5990 0.2286
vn 0.3540 -0.8881 0.2931
vn 0.1073 0.8526 -0.5115
vn 0.4755 0.4601 -0.7498
vn 0.7245 0.4196 -0.5468
vn -0.2880 0.8629 -0.4153
vn 0.8574 0.3645 -0.3635
vn 0.8187 -0.0101 -0.5741
vn 0.4486 -0.8724 -0.1942
vn 0.3651 -0.9164 0.1638
vn 0.1668 -0.7891 0.5912
vn 0.5062 -0.7458 0.4330
vn 0.6052 0.6822 -0.4103
vn 0.9236 -0.2704 -0.2717
vn 0.7675 -0.5277 -0.3640
vn 0.7362 -0.6742 -0.0596
vn 0.4532 0.8877 -0.0812
vn 0.9480 0.2966 0.1159
vn 0.8595 -0.4811 0.1729
vn 0.6492 -0.7419 0.1676
vn -0.0765 -0.9917 -0.1035
vn 0.9875 -0.1577 0.0081
vn 0.7660 -0.6262 -0.1454
vn -0.3121 0.9432 -0.1135
vn 0.8478 0.2187 0.4832
vn 0.9255 -0.1364 0.3533
vn 0.7358 -0.4914 0.4660
vn 0.6293 0.7640 0.1424
vn 0.1258 0.9915 -0.0345
vn 0.7164 -0.1943 0.6701
vn 0.2277 -0.9465 0.2285
vn 0.5870 -0.3474 0.7312
vn 0.0389 -0.9735 -0.2254
vn 0.7501 0.5271 0.3993
vn 0.1852 -0.5311 0.8268
vn 0.4362 -0.6999 0.5656
vn -0.1581 -0.9495 -0.2709
vn 0.3516 -0.9361 0.0081
vn 0.6117 0.3385 0.7150
vn 0.5425 0.6618 0.5174
vn 0.6019 0.0377 0.7976
vn 0.4937 -0.4289 0.7565
vn 0.0743 -0.2081 0.9753
vn 0.0624 -0.3694 0.9272
vn 0.6477 -0.4879 0.5852
vn 0.1245 0.2080 0.9702
vn 0.3630 0.1311 0.9225
vn 0.3468 -0.1985 0.9167
vn -0.5756 0.7794 0.2474
vn -0.1720 -0.3825 0.9078
vn 0.0785 -0.6737 0.7348
vn -0.2341 0.8414 0.4870
vn -0.4272 -0.2230 0.8762
vn -0.2755 0.2911 0.9161
vn -0.3826 0.5445 0.7464
vn -0.6296 0.4221 0.6522
vn 0.0262 0.4317 0.9017
vn -0.5548 -0.8107 -0.1869
vn -0.5290 0.1066 0.8419
vn -0.5211 -0.4688 0.7132
vn 0.6073 0.4625 0.6459
vn 0.5463 0.1494 0.8241
vn 0.5286 -0.6552 0.5397
vn 0.2225 -0.4580 0.8607
vn -0.8540 -0.5203 -0.0033
vn 0.3874 -0.3713 0.8439
vn -0.0561 -0.2758 0.9596
vn 0.2441 0.2056 0.9477
vn 0.2084 -0.5482 0.8099
vn 0.4768 -0.2629 0.8388
vn -0.7599 0.5415 0.3595
vn 0.3568 0.8132 0.4597
vn 0.0868 -0.7830 0.6159
vn 0.4261 0.8375 0.3422
vn 0.4706 -0.8747 0.1157
vn 0.3042 0.6184 0.7246
vn -0.0685 0.2954 0.9529
vn 0.2979 -0.4487 0.8426
vn -0.2020 0.9191 0.3383
vn -0.1939 0.6328 0.7496
vn -0.3095 -0.0491 0.9496
vn -0.2142 -0.4502 0.8669
vn 0.2231 -0.9226 0.3147
vn -0.0230 0.9790 0.2025
vn 0.0376 0.8776 0.4779
vn 0.1265 -0.7211 0.6812
vn -0.2242 -0.5266 0.8200
vn -0.7013 -0.6521 0.2879
vn 0.0022 -0.9979 0.0653
vn -0.4425 0.7823 0.4384
vn -0.7612 0.4450 0.4717
vn 0.2464 -0.4731 0.8459
vn -0.2250 -0.8886 0.3997
vn -0.1254 0.7212 0.6813
vn -0.4342 0.6375 0.6364
vn -0.7023 0.5823 0.4096
vn -0.9400 -0.0888 0.3295
vn -0.4539 -0.8816 0.1291
vn 0.1791 0.7248 0.6652
vn -0.2170 -0.9184 0.3308
vn 0.1440 -0.5243 0.8393
vn -0.6745 0.7153 0.1827
vn 0.1260 -0.3166 0.9402
vn -0.3421 0.8206 0.4579
vn -0.2565 -0.7179 0.6472
vn 0.3370 0.7668 0.5463
vn -0.6606 -0.6882 0.3001
vn -0.2499 0.9291 0.2727
vn -0.3175 -0.4311 0.8446
vn -0.8283 -0.3691 0.4215
vn -0.9231 0.0111 0.3845
vn -0.0190 0.8634 0.5041
vn -0.4907 -0.7028 0.5151
vn -0.8131 0.5650 0.1403
vn -0.9821 -0.1794 0.0569
vn -0.6850 -0.7070 0.1756
vn -0.6193 -0.5917 0.5160
vn -0.9661 0.1964 0.1674
vn 0.1220 0.9331 0.3382
vn -0.4707 0.8807 0.0524
vn -0.5984 -0.7957 0.0936
vn -0.8946 0.4247 -0.1392
vn 0.0641 -0.7915 0.6078
vn -0.5607 -0.5977 -0.5730
vn -0.7257 0.5553 -0.4063
vn 0.2674 0.9608 0.0730
vn -0.7616 -0.5249 -0.3800
vn -0.0331 0.9952 -0.0919
vn -0.1016 0.9885 0.1116
vn -0.7759 -0.6237 0.0947
vn -0.3000 0.9100 -0.2861
vn -0.6049 0.4450 -0.6604
vn -0.6244 -0.0438 -0.7799
vn -0.7044 -0.2979 -0.6442
vn -0.5694 -0.7114 -0.4120
vn -0.1760 -0.9661 0.1889
vn 0.0454 0.9623 -0.2684
vn -0.8722 -0.4545 -0.1808
vn -0.7613 0.2484 -0.5989
vn -0.3579 0.1235 -0.9255
vn -0.3165 -0.1142 -0.9417
vn -0.4349 -0.3356 -0.8356
vn -0.4220 0.3202 -0.8482
vn -0.3962 -0.1289 -0.9091
vn -0.4072 -0.2466 -0.8794
vn -0.0262 -0.8020 -0.5967
vn 0.2617 0.9228 -0.2829
vn 0.5678 0.8100 0.1469
vn 0.2620 0.7615 -0.5928
vn 0.1969 -0.9285 -0.3149
vn -0.3098 -0.5254 -0.7924
vn -0.1793 -0.9458 -0.2707
vn 0.4220 -0.7875 -0.4492
vn 0.4922 0.7813 -0.3838
vn 0.0692 -0.5115 -0.8565
vn -0.1300 0.4897 -0.8621
vn 0.5494 -0.7640 0.3384
vn -0.0695 -0.3791 -0.9227
vn 0.1109 -0.8543 -0.5078
vn 0.6035 -0.7933 -0.0799
vn 0.4437 -0.6554 0.6112
vn 0.6360 -0.4548 0.6234
vn -0.5306 0.8476 0.0060
vn 0.4631 -0.3145 0.8287
vn -0.3956 0.9184 -0.0025
vn 0.2966 -0.6105 0.7343
vn 0.3769 0.8653 0.3305
vn 0.5022 0.7353 0.4552
vn 0.2598 -0.8639 0.4315
vn -0.0603 0.7262 -0.6848
vn -0.0769 -0.8268 -0.5572
vn 0.0653 0.9860 -0.1536
vn -0.3301 -0.3442 -0.8789
vn 0.1805 -0.2738 -0.9447
vn 0.0836 0.9345 -0.3459
vn -0.0184 0.9580 -0.2861
vn -0.0670 0.0962 -0.9931
vn -0.6333 0.7171 -0.2911
vn 0.5728 0.1290 -0.8095
vn 0.0757 0.8654 -0.4953
vn 0.4383 -0.7923 0.4245
vn 0.8071 0.3652 -0.4639
vn 0.7690 0.1112 -0.6295
vn -0.4422 0.7200 -0.5349
vn 0.4300 0.7248 -0.5383
vn 0.9070 0.0630 -0.4163
vn 0.6495 -0.5650 0.5089
vn 0.7540 -0.3295 -0.5682
vn 0.8853 -0.3777 -0.2714
vn -0.0546 0.9551 -0.2912
vn 0.3029 0.8908 -0.3387
vn 0.1759 -0.9841 -0.0252
vn -0.0343 -0.9416 0.3349
vn 0.3780 -0.5134 0.7704
vn 0.9641 0.1225 -0.2356
vn -0.5338 0.7973 -0.2818
vn 0.5975 -0.4014 0.6942
vn -0.2000 -0.9232 -0.3281
vn -0.1267 0.9886 0.0811
vn 0.3750 -0.8925 0.2509
vn 0.4745 -0.8337 0.2824
vn 0.4232 0.8609 0.2824
vn 0.2510 -0.9613 -0.1137
vn 0.2598 -0.9239 0.2808
vn -0.3159 0.9172 0.2429
vn 0.4747 -0.6079 0.6365
vn 0.1125 0.9566 0.2689
vn 0.1795 0.8107 0.5572
vn 0.4855 -0.8266 0.2845
vn -0.0807 -0.9386 0.3354
vn 0.3313 0.5266 0.7829
vn 0.0116 0.5210 0.8535
vn -0.1681 0.0014 0.9858
vn 0.2109 -0.2372 0.9483
vn -0.0962 0.7140 0.6935
vn -0.4420 -0.1579 0.8830
vn -0.2469 -0.1739 0.9533
vn -0.1447 -0.8366 0.5283
vn -0.5315 0.6987 0.4789
vn -0.6464 0.0423 0.7618
vn -0.8305 -0.3604 0.4246
vn -0.5685 -0.7818 0.2561
vn -0.0950 -0.4833 0.8703
vn -0.1260 0.7169 0.6856
vn 0.0873 -0.0797 0.9930
vn -0.7056 0.7060 0.0610
vn 0.7205 -0.2633 0.6416
vn -0.1856 -0.8634 0.4691
vn -0.1663 0.8434 0.5109
vn -0.2518 -0.8721 0.4196
vn -0.3073 -0.8499 0.4281
vn -0.4802 -0.8164 0.3208
vn 0.1091 -0.1783 0.9779
vn -0.2359 0.7861 0.5713
vn -0.3909 -0.6939 0.6048
vn 0.0473 -0.5369 0.8423
vn -0.7762 -0.0262 0.6299
vn -0.6406 -0.3657 0.6752
vn 0.1138 0.8749 0.4708
vn -0.9040 -0.3787 0.1983
vn 0.2477 -0.9173 0.3118
vn -0.3327 0.8095 0.4838
vn -0.9677 0.0962 0.2330
vn -0.2208 -0.5910 0.7758
vn -0.8423 0.3552 0.4054
vn -0.8422 -0.4409 0.3105
vn -0.3147 -0.7812 0.5391
vn -0.5683 -0.7434 0.3526
vn -0.8002 0.2099 0.5618
vn -0.7536 0.4547 0.4748
vn -0.8494 -0.5104 0.1340
vn -0.8324 -0.5425 -0.1128
vn -0.4809 -0.8139 0.3260
vn -0.9539 0.1467 -0.2620
vn -0.9278 -0.2378 -0.2874
vn 0.0274 -0.9488 0.3146
vn -0.6023 -0.7759 -0.1875
vn -0.6448 0.7475 -0.1597
vn -0.7371 -0.5315 -0.4174
vn -0.4178 0.7145 -0.5611
vn -0.4668 -0.8812 -0.0752
vn 0.4705 0.8737 0.1234
vn -0.3927 -0.4789 -0.7852
vn -0.0361 0.8564 -0.5151
vn -0.3460 -0.1008 -0.9328
vn -0.1790 0.6108 -0.7713
vn -0.1350 -0.3629 -0.9220
vn -0.3309 0.1545 -0.9310
vn -0.6328 -0.2917 -0.7173
vn -0.3334 -0.3602 -0.8713
vn 0.0787 0.6094 -0.7890
vn -0.0424 0.2319 -0.9718
vn -0.0640 -0.6035 -0.7948
vn 0.1814 0.9104 -0.3717
vt 0.724490 0.364366
vt 0.724510 0.297889
vt 0.761011 0.295994
vt 0.755818 0.418779
vt 0.763824 0.860835
vt 0.699204 0.819737
vt 0.768918 0.789503
vt 0.736601 0.245354
vt 0.697202 0.255013
vt 0.700929 0.191334
vt 0.750836 0.194800
vt 0.729441 0.505526
vt 0.705219 0.431633
vt 0.732947 0.406490
vt 0.715455 0.948323
vt 0.703095 0.876538
vt 0.695443 0.351224
vt 0.748381 0.743221
vt 0.667020 0.782857
vt 0.708292 0.716329
vt 0.673019 0.323886
vt 0.652505 0.224061
vt 0.713602 0.635933
vt 0.680107 0.686163
vt 0.674351 0.631139
vt 0.733904 0.579524
vt 0.694348 0.581614
vt 0.757473 0.097324
vt 0.713191 0.148899
vt 0.716499 0.066915
vt 0.696027 0.509605
vt 0.660344 0.151619
vt 0.658524 0.587191
vt 0.644945 0.504248
vt 0.671264 0.507024
vt 0.673167 0.957230
vt 0.673828 0.992188
vt 0.671875 1.000000
vt 0.637950 0.435429
vt 0.674269 0.429305
vt 0.616611 0.943605
vt 0.653594 0.866784
vt 0.648386 0.375715
vt 0.628034 0.807765
vt 0.641379 0.288035
vt 0.645043 0.679584
vt 0.596766 0.876042
vt 0.616398 0.382346
vt 0.604574 0.334649
vt 0.641331 0.743954
vt 0.616231 0.681956
vt 0.589475 0.224078
vt 0.635364 0.615093
vt 0.634575 0.973468
vt 0.641247 0.989719
vt 0.614260 0.116402
vt 0.620655 0.034787
vt 0.629538 0.550745
vt 0.604920 0.536659
vt 0.583582 0.402608
vt 0.598941 0.288384
vt 0.610749 0.760898
vt 0.586252 0.722812
vt 0.581314 0.657797
vt 0.560824 0.162244
vt 0.569499 0.336930
vt 0.554819 0.257858
vt 0.557959 0.628641
vt 0.594826 0.606184
vt 0.576893 0.521257
vt 0.560700 0.433585
vt 0.603095 0.463619
vt 0.546858 0.481219
vt 0.606962 0.949082
vt 0.482683 0.906767
vt 0.538444 0.848120
vt 0.569146 0.792398
vt 0.522161 0.105717
vt 0.578068 0.066914
vt 0.520015 0.049113
vt 0.549380 0.032755
vt 0.545411 0.548855
vt 0.514428 0.493643
vt 0.527777 0.780596
vt 0.545038 0.363492
vt 0.526784 0.275151
vt 0.537102 0.697202
vt 0.527510 0.622069
vt 0.506589 0.338468
vt 0.473043 0.289477
vt 0.488572 0.756293
vt 0.487968 0.677036
vt 0.500045 0.194363
vt 0.470313 0.050256
vt 0.511817 0.575991
vt 0.486972 0.517516
vt 0.500574 0.415242
vt 0.523781 0.444769
vt 0.472310 0.603865
vt 0.450785 0.518856
vt 0.484347 0.000681
vt 0.486328 0.007812
vt 0.464093 0.449798
vt 0.474141 0.825894
vt 0.465330 0.392215
vt 0.439555 0.335300
vt 0.476397 0.238507
vt 0.458591 0.177756
vt 0.435740 0.655588
vt 0.432860 0.591616
vt 0.465318 0.716290
vt 0.454297 0.949616
vt 0.456597 0.963989
vt 0.445758 0.965808
vt 0.451359 0.987695
vt 0.432403 0.449518
vt 0.431834 0.864567
vt 0.417207 0.801155
vt 0.410068 0.503882
vt 0.390528 0.457977
vt 0.365720 0.869357
vt 0.406117 0.395892
vt 0.437029 0.229072
vt 0.417711 0.266774
vt 0.401390 0.304181
vt 0.360193 0.168965
vt 0.387635 0.090900
vt 0.452377 0.110892
vt 0.402603 0.619449
vt 0.392651 0.557605
vt 0.419968 0.045282
vt 0.380020 0.218095
vt 0.417866 0.687907
vt 0.376020 0.666477
vt 0.368250 0.582120
vt 0.367399 0.510011
vt 0.358084 0.434709
vt 0.340796 0.803492
vt 0.376169 0.354461
vt 0.369543 0.273607
vt 0.387159 0.745084
vt 0.332904 0.394762
vt 0.366674 0.323531
vt 0.340700 0.744256
vt 0.327140 0.293318
vt 0.333635 0.236201
vt 0.342947 0.683065
vt 0.345401 0.603748
vt 0.341137 0.510740
vt 0.363750 0.023653
vt 0.357178 0.020672
vt 0.359481 0.000422
vt 0.290372 0.159502
vt 0.277478 0.096700
vt 0.304560 0.642403
vt 0.315024 0.564144
vt 0.319115 0.466143
vt 0.283045 0.422002
vt 0.324506 0.354103
vt 0.293851 0.878110
vt 0.281002 0.809183
vt 0.299181 0.726813
vt 0.263613 0.373481
vt 0.294463 0.348574
vt 0.278487 0.303120
vt 0.261507 0.728491
vt 0.277507 0.218566
vt 0.290558 0.508960
vt 0.274056 0.608324
vt 0.241152 0.641269
vt 0.249076 0.546220
vt 0.300106 0.054246
vt 0.263383 0.017812
vt 0.253578 0.421084
vt 0.242042 0.376889
vt 0.221171 0.304810
vt 0.245575 0.281775
vt 0.230117 0.695662
vt 0.231693 0.816564
vt 0.198199 0.777638
vt 0.229625 0.208388
vt 0.236874 0.113066
vt 0.205088 0.172925
vt 0.178403 0.133687
vt 0.223079 0.626474
vt 0.219311 0.554529
vt 0.235187 0.472772
vt 0.211951 0.385512
vt 0.191597 0.640589
vt 0.192859 0.559943
vt 0.183090 0.494005
vt 0.213794 0.476099
vt 0.253503 0.941492
vt 0.208495 0.975679
vt 0.173451 0.946726
vt 0.186436 0.429971
vt 0.188788 0.290288
vt 0.189207 0.850086
vt 0.192972 0.229527
vt 0.191278 0.716120
vt 0.156866 0.782032
vt 0.131019 0.724107
vt 0.163835 0.324954
vt 0.119586 0.298486
vt 0.170571 0.188497
vt 0.153551 0.620898
vt 0.167720 0.568985
vt 0.155388 0.514286
vt 0.171896 0.000585
vt 0.177292 0.039047
vt 0.169922 0.007812
vt 0.113283 0.882244
vt 0.134589 0.966491
vt 0.114065 0.519338
vt 0.122727 0.467039
vt 0.139323 0.564016
vt 0.142578 0.992188
vt 0.140625 1.000000
vt 0.158273 0.453808
vt 0.133251 0.416049
vt 0.131358 0.365184
vt 0.168588 0.378624
vt 0.111388 0.818563
vt 0.110622 0.259928
vt 0.151226 0.210397
vt 0.135213 0.175105
vt 0.130899 0.114585
vt 0.123205 0.758781
vt 0.087720 0.705595
vt 0.080188 0.764460
vt 0.118969 0.652256
vt 0.094943 0.193426
vt 0.104505 0.586481
vt 0.078588 0.459504
vt 0.097343 0.366499
vt 0.095008 0.419490
vt 0.079877 0.319015
vt 0.058783 0.385699
vt 0.042480 0.218167
vt 0.056893 0.708200
vt 0.037549 0.179215
vt 0.052279 0.086195
vt 0.089305 0.638313
vt 0.065056 0.576843
vt 0.106972 0.064705
vt 0.075457 0.045061
vt 0.080163 0.533168
vt 0.011663 0.699456
vt 0.026214 0.642020
vt 0.065984 0.630272
vt 0.039474 0.585061
vt 0.050925 0.503018
vt 0.047437 0.031510
vt 0.035156 0.046875
vt 0.052947 0.438052
vt 0.014854 0.449494
vt 0.055548 0.821566
vt 0.018957 0.871459
vt 0.006989 0.794374
vt 0.010341 0.343294
vt 0.041057 0.312000
vt 0.031410 0.759983
vt 0.010348 0.531260
vt 0.000000 0.483486
vt 0.021208 0.938545
vt 0.005851 0.262026
vt 0.004636 0.240201
vt 0.000838 0.632936
vt 0.003194 0.584181
vt 0.010535 0.139440
vt 0.005271 0.067565
vt 1.000000 0.207061
vt 0.990349 0.257292
vt 0.975054 0.210454
vt 0.989735 0.148602
vt 0.942192 0.177351
vt 0.987061 0.570373
vt 0.983812 0.652212
vt 0.957737 0.615964
vt 0.998681 0.906214
vt 0.986506 0.964488
vt 0.903360 0.889030
vt 0.982984 0.417691
vt 0.970751 0.334484
vt 0.995081 0.342895
vt 0.996228 0.870131
vt 0.958533 0.830557
vt 0.996915 0.711648
vt 0.991340 0.797035
vt 0.961014 0.748658
vt 0.955642 0.286677
vt 0.953803 0.409584
vt 0.940108 0.350322
vt 0.912559 0.832716
vt 0.902379 0.758346
vt 0.929059 0.240770
vt 0.893694 0.143100
vt 0.880570 0.102701
vt 0.961511 0.069780
vt 0.945262 0.555507
vt 0.941019 0.479943
vt 0.979112 0.490531
vt 0.918938 0.648563
vt 0.904263 0.578232
vt 0.915345 0.528174
vt 0.889266 0.460493
vt 0.925930 0.412817
vt 0.895750 0.400751
vt 0.901665 0.340534
vt 0.906503 0.284595
vt 0.883400 0.689301
vt 0.942852 0.696190
vt 0.888679 0.193275
vt 0.860639 0.423554
vt 0.868633 0.250680
vt 0.889590 0.620525
vt 0.863230 0.596331
vt 0.884636 0.518413
vt 0.847832 0.501477
vt 0.828780 0.446787
vt 0.847804 0.384878
vt 0.828563 0.826485
vt 0.878624 0.816588
vt 0.862785 0.323413
vt 0.823486 0.279983
vt 0.848778 0.754370
vt 0.842501 0.675253
vt 0.808649 0.226087
vt 0.800740 0.748403
vt 0.815320 0.685613
vt 0.840373 0.182745
vt 0.816799 0.585452
vt 0.794993 0.129195
vt 0.847136 0.567227
vt 0.806165 0.466936
vt 0.865013 0.940660
vt 0.812467 0.405754
vt 0.790197 0.415334
vt 0.789019 0.347651
vt 0.821060 0.357773
vt 0.784374 0.283110
vt 0.789768 0.171426
vt 0.785966 0.608142
vt 0.745695 0.671800
vt 0.863110 0.056770
vt 0.763672 0.992188
vt 0.765651 0.985664
vt 0.765625 1.000000
vt 0.771682 0.487361
vt 0.794552 0.950252
vt 0.761043 0.545169
vt 0.699171 0.981340
vt 0.435653 0.746507
vt 0.454591 0.008652
vt 0.443129 0.039267
vt 0.316844 0.061480
vt 0.411736 0.047113
vt 0.410581 0.945700
vt 0.324219 0.984375
vt 0.352155 0.939507
vt 0.327617 0.989935
vt 0.289127 0.941237
vt 0.278195 0.043743
vt 0.265647 0.000363
vt 0.189745 0.048991
vt 0.238930 0.046302
vt 0.211659 0.034136
vt 0.201771 0.008949
vt 0.156141 0.689474
vt 0.159094 0.051126
vt 0.163485 0.033561
vt 0.137198 0.043416
vt 0.111782 0.982033
vt 0.106010 0.968349
vt 0.069665 0.033839
vt 0.087583 0.943259
vt 0.046943 0.990676
vt 0.052734 0.976563
vt 0.001869 0.393902
vt 1.000000 0.187500
vt 0.996676 0.517321
vt 0.997781 0.428876
vt 0.952726 0.973013
vt 0.930665 0.036247
vt 0.920437 0.024632
vt 0.822266 0.976563
vt 0.828441 0.954507
vt 0.827316 0.991239
vt 0.795666 0.539632
vt 0.772072 0.668905
vt 0.729410 0.952487
vt 0.778140 0.050278
vt 0.766979 0.024698
s 1
f 20/1/20 216/2/216 318/3/318
f 218/4/218 20/1/20 318/3/318
f 12/5/12 28/6/28 199/7/199
f 318/3/318 216/2/216 204/8/204
f 216/2/216 19/9/19 204/8/204
f 204/8/204 21/10/21 198/11/198
f 222/12/222 219/13/219 203/14/203
f 217/15/217 220/16/220 12/5/12
f 219/13/219 17/17/17 20/1/20
f 203/14/203 219/13/219 20/1/20
f 20/1/20 17/17/17 216/2/216
f 319/18/319 35/19/35 221/20/221
f 17/17/17 19/9/19 216/2/216
f 17/17/17 18/21/18 19/9/19
f 19/9/19 24/22/24 21/10/21
f 22/23/22 29/24/29 26/25/26
f 14/26/14 22/23/22 25/27/25
f 1/28/1 205/29/205 202/30/202
f 222/12/222 14/26/14 16/31/16
f 21/10/21 34/32/34 205/29/205
f 26/25/26 37/33/37 25/27/25
f 37/33/37 228/34/228 224/35/224
f 223/36/223 217/37/217 3/38/3
f 224/35/224 32/39/32 27/40/27
f 220/16/220 241/41/241 229/42/229
f 17/17/17 27/40/27 23/43/23
f 27/40/27 32/39/32 23/43/23
f 28/6/28 229/42/229 30/44/30
f 17/17/17 23/43/23 18/21/18
f 18/21/18 23/43/23 33/45/33
f 35/19/35 29/24/29 221/20/221
f 29/24/29 36/46/36 26/25/26
f 30/44/30 229/42/229 51/47/51
f 23/43/23 41/48/41 42/49/42
f 35/19/35 30/44/30 225/50/225
f 225/50/225 230/51/230 36/46/36
f 34/32/34 24/22/24 47/52/47
f 26/25/26 2/53/2 37/33/37
f 36/46/36 2/53/2 26/25/26
f 3/54/3 241/41/241 223/55/223
f 226/56/226 206/57/206 202/30/202
f 227/58/227 39/59/39 228/34/228
f 41/48/41 45/60/45 42/49/42
f 33/45/33 42/49/42 38/61/38
f 24/22/24 38/61/38 47/52/47
f 230/51/230 31/62/31 43/63/43
f 225/50/225 31/62/31 230/51/230
f 230/51/230 43/63/43 49/64/49
f 34/32/34 47/52/47 56/65/56
f 42/49/42 45/60/45 46/66/46
f 38/61/38 46/66/46 57/67/57
f 49/64/49 44/68/44 50/69/50
f 231/70/231 234/71/234 40/72/40
f 231/70/231 233/73/233 234/71/234
f 51/47/51 241/74/241 69/75/69
f 30/44/30 235/76/235 48/77/48
f 30/44/30 51/47/51 235/76/235
f 226/56/226 56/65/56 239/78/239
f 232/79/232 207/80/207 206/81/206
f 53/82/53 59/83/59 233/73/233
f 231/70/231 53/82/53 233/73/233
f 51/47/51 69/75/69 235/76/235
f 48/77/48 235/76/235 236/84/236
f 46/66/46 61/85/61 57/67/57
f 43/63/43 48/77/48 236/84/236
f 57/67/57 61/85/61 55/86/55
f 43/63/43 236/84/236 58/87/58
f 49/64/49 58/87/58 44/68/44
f 44/68/44 52/88/52 53/82/53
f 54/89/54 237/90/237 55/86/55
f 58/87/58 62/91/62 4/92/4
f 56/65/56 55/86/55 238/93/238
f 239/78/239 242/94/242 207/80/207
f 239/78/239 207/80/207 232/79/232
f 240/95/240 67/96/67 59/83/59
f 59/83/59 68/97/68 60/98/60
f 63/99/63 71/100/71 67/96/67
f 242/94/242 206/101/206 207/102/207
f 67/96/67 64/103/64 68/97/68
f 235/76/235 69/75/69 74/104/74
f 65/105/65 245/106/245 54/89/54
f 236/84/236 74/104/74 62/91/62
f 66/107/66 243/108/243 238/93/238
f 52/88/52 4/92/4 63/99/63
f 4/92/4 79/109/79 63/99/63
f 79/109/79 70/110/70 63/99/63
f 73/111/73 79/109/79 4/92/4
f 63/99/63 70/110/70 71/100/71
f 69/112/69 241/113/241 208/114/208
f 208/114/208 241/113/241 3/115/3
f 64/103/64 71/100/71 72/116/72
f 244/117/244 252/118/252 74/104/74
f 74/104/74 252/118/252 62/91/62
f 72/116/72 75/119/75 87/120/87
f 69/75/69 250/121/250 244/117/244
f 65/105/65 72/116/72 81/122/81
f 78/123/78 237/90/237 83/124/83
f 237/90/237 245/106/245 246/125/246
f 237/90/237 246/125/246 83/124/83
f 78/123/78 82/126/82 243/108/243
f 243/108/243 249/127/249 76/128/76
f 70/110/70 84/129/84 86/130/86
f 76/128/76 249/127/249 77/131/77
f 83/124/83 248/132/248 78/123/78
f 248/132/248 82/126/82 78/123/78
f 85/133/85 256/134/256 84/129/84
f 84/129/84 256/134/256 92/135/92
f 86/130/86 92/135/92 93/136/93
f 75/119/75 93/136/93 87/120/87
f 87/120/87 80/137/80 81/122/81
f 250/121/250 97/138/97 252/118/252
f 245/106/245 251/139/251 246/125/246
f 245/106/245 81/122/81 251/139/251
f 246/125/246 254/140/254 83/124/83
f 253/141/253 256/134/256 85/133/85
f 251/139/251 80/137/80 89/142/89
f 81/122/81 80/137/80 251/139/251
f 251/139/251 89/142/89 90/143/90
f 97/138/97 260/144/260 253/141/253
f 252/118/252 97/138/97 253/141/253
f 254/140/254 96/145/96 255/146/255
f 253/141/253 257/147/257 256/134/256
f 255/146/255 82/126/82 248/132/248
f 92/135/92 256/134/256 91/148/91
f 92/135/92 91/148/91 88/149/88
f 77/150/77 209/151/209 206/152/206
f 87/120/87 93/136/93 80/137/80
f 249/127/249 103/153/103 263/154/263
f 91/148/91 99/155/99 258/156/258
f 80/137/80 95/157/95 89/142/89
f 89/142/89 261/158/261 259/159/259
f 94/160/94 264/161/264 97/138/97
f 97/138/97 100/162/100 260/144/260
f 260/144/260 100/162/100 257/147/257
f 261/158/261 265/163/265 262/164/262
f 262/164/262 105/165/105 96/145/96
f 264/161/264 101/166/101 100/162/100
f 255/146/255 105/165/105 267/167/267
f 82/126/82 255/146/255 267/167/267
f 82/126/82 267/167/267 103/153/103
f 95/157/95 98/168/98 261/158/261
f 104/169/104 102/170/102 270/171/270
f 209/172/209 263/154/263 111/173/111
f 98/168/98 104/169/104 270/171/270
f 261/158/261 270/171/270 112/174/112
f 112/174/112 268/175/268 265/163/265
f 104/169/104 101/166/101 102/170/102
f 99/155/99 100/162/100 104/169/104
f 268/175/268 275/176/275 266/177/266
f 265/163/265 266/177/266 105/165/105
f 269/178/269 116/179/116 274/180/274
f 101/166/101 116/179/116 269/178/269
f 102/170/102 101/166/101 269/178/269
f 263/154/263 110/181/110 273/182/273
f 277/183/277 109/184/109 273/182/273
f 270/171/270 102/170/102 106/185/106
f 270/171/270 106/185/106 107/186/107
f 270/171/270 272/187/272 112/174/112
f 272/187/272 108/188/108 268/175/268
f 107/186/107 121/189/121 113/190/113
f 113/190/113 278/191/278 115/192/115
f 271/193/271 3/194/3 124/195/124
f 115/192/115 114/196/114 108/188/108
f 115/192/115 108/188/108 272/187/272
f 108/188/108 120/197/120 275/176/275
f 116/179/116 279/198/279 274/180/274
f 266/177/266 275/176/275 110/181/110
f 275/176/275 276/199/276 110/181/110
f 269/178/269 274/180/274 119/200/119
f 110/181/110 276/199/276 277/183/277
f 106/185/106 119/200/119 121/189/121
f 119/200/119 117/201/117 129/202/129
f 128/203/128 134/204/134 120/197/120
f 277/183/277 132/205/132 109/184/109
f 121/189/121 125/206/125 122/207/122
f 122/207/122 126/208/126 278/191/278
f 206/209/206 123/210/123 211/211/211
f 124/195/124 151/212/151 279/198/279
f 151/212/151 124/195/124 210/213/210
f 126/208/126 282/214/282 283/215/283
f 5/216/5 282/214/282 126/208/126
f 210/213/210 124/217/124 3/218/3
f 126/208/126 283/215/283 127/219/127
f 280/220/280 138/221/138 118/222/118
f 127/219/127 280/220/280 118/222/118
f 117/201/117 151/212/151 144/223/144
f 118/222/118 138/221/138 128/203/128
f 138/221/138 134/204/134 128/203/128
f 286/224/286 131/225/131 276/199/276
f 109/184/109 281/226/281 148/227/148
f 122/207/122 125/206/125 5/216/5
f 284/228/284 287/229/287 129/202/129
f 284/228/284 139/230/139 287/229/287
f 129/202/129 287/229/287 135/231/135
f 286/224/286 146/232/146 131/225/131
f 281/226/281 146/232/146 148/227/148
f 125/206/125 135/231/135 136/233/136
f 283/215/283 282/214/282 285/234/285
f 280/220/280 143/235/143 138/221/138
f 280/220/280 133/236/133 143/235/143
f 134/204/134 143/235/143 145/237/145
f 143/235/143 133/236/133 152/238/152
f 133/236/133 285/234/285 152/238/152
f 145/237/145 289/239/289 286/224/286
f 287/229/287 139/230/139 140/240/140
f 148/227/148 154/241/154 6/242/6
f 147/243/147 290/244/290 136/233/136
f 137/245/137 148/227/148 6/242/6
f 137/245/137 6/242/6 211/246/211
f 282/214/282 288/247/288 285/234/285
f 140/240/140 7/248/7 295/249/295
f 141/250/141 140/240/140 295/249/295
f 290/244/290 294/251/294 142/252/142
f 288/247/288 290/244/290 142/252/142
f 206/253/206 6/242/6 168/254/168
f 285/234/285 142/252/142 291/255/291
f 142/252/142 155/256/155 291/255/291
f 157/257/157 164/258/164 153/259/153
f 152/238/152 293/260/293 292/261/292
f 139/230/139 157/257/157 149/262/149
f 156/263/156 160/264/160 155/256/155
f 151/212/151 212/265/212 164/258/164
f 155/256/155 293/260/293 152/238/152
f 291/255/291 155/256/155 152/238/152
f 293/260/293 158/266/158 292/261/292
f 289/239/289 158/267/158 154/241/154
f 295/249/295 7/248/7 159/268/159
f 294/251/294 295/249/295 163/269/163
f 295/249/295 159/268/159 163/269/163
f 150/270/150 168/271/168 6/242/6
f 294/251/294 156/263/156 142/252/142
f 154/272/154 158/273/158 162/274/162
f 150/275/150 162/274/162 298/276/298
f 163/277/163 159/278/159 167/279/167
f 164/280/164 212/281/212 171/282/171
f 296/283/296 166/284/166 293/285/293
f 164/286/164 171/282/171 174/287/174
f 7/288/7 153/289/153 165/290/165
f 153/289/153 174/287/174 165/290/165
f 166/284/166 161/291/161 158/273/158
f 7/288/7 165/290/165 159/278/159
f 297/292/297 302/293/302 166/284/166
f 302/293/302 161/291/161 166/284/166
f 165/290/165 173/294/173 176/295/176
f 162/274/162 161/291/161 175/296/175
f 175/296/175 298/276/298 162/274/162
f 298/276/298 181/297/181 150/275/150
f 150/275/150 301/298/301 168/299/168
f 299/300/299 300/301/300 160/302/160
f 163/277/163 299/300/299 160/302/160
f 300/301/300 297/292/297 296/283/296
f 167/279/167 170/303/170 299/300/299
f 299/300/299 184/304/184 8/305/8
f 300/301/300 8/305/8 9/306/9
f 300/301/300 172/307/172 297/292/297
f 172/307/172 169/308/169 304/309/304
f 174/287/174 171/282/171 173/294/173
f 302/293/302 304/309/304 161/291/161
f 172/307/172 304/309/304 302/293/302
f 175/296/175 161/291/161 183/310/183
f 161/291/161 304/309/304 183/310/183
f 176/295/176 305/311/305 303/312/303
f 303/312/303 305/311/305 170/303/170
f 175/296/175 306/313/306 298/276/298
f 169/308/169 9/306/9 308/314/308
f 175/296/175 183/310/183 180/315/180
f 177/316/177 188/317/188 184/304/184
f 184/304/184 188/317/188 178/318/178
f 9/306/9 186/319/186 308/314/308
f 308/314/308 312/320/312 187/321/187
f 173/294/173 192/322/192 182/323/182
f 171/282/171 192/322/192 173/294/173
f 180/315/180 179/324/179 196/325/196
f 309/326/309 311/327/311 305/311/305
f 176/295/176 309/326/309 305/311/305
f 196/325/196 191/328/191 180/315/180
f 305/311/305 311/327/311 188/317/188
f 305/311/305 188/317/188 177/316/177
f 192/322/192 194/329/194 309/326/309
f 309/326/309 316/330/316 311/327/311
f 180/315/180 191/328/191 197/331/197
f 311/327/311 317/332/317 188/317/188
f 181/297/181 197/331/197 10/333/10
f 181/297/181 10/333/10 301/298/301
f 188/317/188 317/332/317 185/334/185
f 301/298/301 10/333/10 1/28/1
f 185/334/185 317/332/317 186/319/186
f 186/319/186 317/332/317 189/335/189
f 307/336/307 12/5/12 171/282/171
f 312/320/312 189/335/189 190/337/190
f 189/335/189 314/338/314 190/337/190
f 190/337/190 315/339/315 310/340/310
f 315/339/315 200/341/200 196/325/196
f 192/322/192 199/7/199 194/329/194
f 197/331/197 191/328/191 195/342/195
f 316/330/316 201/343/201 317/332/317
f 318/3/318 204/8/204 200/341/200
f 195/342/195 198/11/198 205/29/205
f 201/343/201 13/344/13 14/26/14
f 214/345/214 1/28/1 202/30/202
f 217/346/217 210/347/210 3/348/3
f 11/349/11 218/4/218 314/338/314
f 193/350/193 217/15/217 12/5/12
f 315/339/315 318/3/318 200/341/200
f 218/4/218 203/14/203 20/1/20
f 199/7/199 28/6/28 319/18/319
f 319/18/319 28/6/28 35/19/35
f 13/344/13 319/18/319 221/20/221
f 205/29/205 198/11/198 21/10/21
f 1/28/1 10/333/10 205/29/205
f 14/26/14 13/344/13 22/23/22
f 222/12/222 15/351/15 14/26/14
f 11/349/11 15/351/15 222/12/222
f 218/4/218 222/12/222 203/14/203
f 218/4/218 11/349/11 222/12/222
f 219/13/219 27/40/27 17/17/17
f 12/5/12 220/16/220 28/6/28
f 220/16/220 229/42/229 28/6/28
f 204/8/204 19/9/19 21/10/21
f 22/23/22 221/20/221 29/24/29
f 22/23/22 13/344/13 221/20/221
f 25/27/25 22/23/22 26/25/26
f 16/31/16 14/26/14 25/27/25
f 219/13/219 222/12/222 16/31/16
f 219/13/219 16/31/16 27/40/27
f 217/15/217 223/352/223 220/16/220
f 205/29/205 34/32/34 226/56/226
f 21/10/21 24/22/24 34/32/34
f 202/30/202 205/29/205 226/56/226
f 16/31/16 25/27/25 224/35/224
f 25/27/25 37/33/37 224/35/224
f 16/31/16 224/35/224 27/40/27
f 220/16/220 223/352/223 241/41/241
f 28/6/28 30/44/30 35/19/35
f 24/22/24 19/9/19 33/45/33
f 19/9/19 18/21/18 33/45/33
f 35/19/35 225/50/225 29/24/29
f 29/24/29 225/50/225 36/46/36
f 33/45/33 23/43/23 42/49/42
f 225/50/225 30/44/30 31/62/31
f 36/46/36 230/51/230 2/53/2
f 37/33/37 2/53/2 227/58/227
f 37/33/37 227/58/227 228/34/228
f 228/34/228 40/72/40 32/39/32
f 224/35/224 228/34/228 32/39/32
f 229/42/229 241/41/241 51/47/51
f 23/43/23 32/39/32 41/48/41
f 2/53/2 50/69/50 227/58/227
f 227/58/227 50/69/50 39/59/39
f 226/56/226 232/79/232 206/57/206
f 228/34/228 39/59/39 40/72/40
f 41/48/41 32/39/32 40/72/40
f 41/48/41 40/72/40 45/60/45
f 31/62/31 30/44/30 48/77/48
f 24/22/24 33/45/33 38/61/38
f 230/51/230 49/64/49 50/69/50
f 2/53/2 230/51/230 50/69/50
f 226/56/226 34/32/34 56/65/56
f 38/61/38 42/49/42 46/66/46
f 43/63/43 31/62/31 48/77/48
f 47/52/47 38/61/38 57/67/57
f 56/65/56 47/52/47 57/67/57
f 50/69/50 44/68/44 231/70/231
f 39/59/39 50/69/50 231/70/231
f 231/70/231 44/68/44 53/82/53
f 226/56/226 239/78/239 232/79/232
f 39/59/39 231/70/231 40/72/40
f 45/60/45 40/72/40 234/71/234
f 233/73/233 60/98/60 234/71/234
f 45/60/45 234/71/234 61/85/61
f 234/71/234 60/98/60 61/85/61
f 46/66/46 45/60/45 61/85/61
f 61/85/61 54/89/54 55/86/55
f 49/64/49 43/63/43 58/87/58
f 44/68/44 58/87/58 52/88/52
f 239/78/239 56/65/56 238/93/238
f 53/82/53 52/88/52 240/95/240
f 58/87/58 236/84/236 62/91/62
f 55/86/55 237/90/237 66/107/66
f 56/65/56 57/67/57 55/86/55
f 55/86/55 66/107/66 238/93/238
f 52/88/52 58/87/58 4/92/4
f 53/82/53 240/95/240 59/83/59
f 233/73/233 59/83/59 60/98/60
f 60/98/60 68/97/68 61/85/61
f 236/84/236 235/76/235 74/104/74
f 61/85/61 68/97/68 54/89/54
f 59/83/59 67/96/67 68/97/68
f 68/97/68 64/103/64 65/105/65
f 74/104/74 69/75/69 244/117/244
f 68/97/68 65/105/65 54/89/54
f 54/89/54 245/106/245 237/90/237
f 4/92/4 62/91/62 73/111/73
f 239/78/239 238/93/238 76/128/76
f 238/93/238 243/108/243 76/128/76
f 240/95/240 63/99/63 67/96/67
f 240/95/240 52/88/52 63/99/63
f 239/78/239 76/128/76 242/94/242
f 78/123/78 66/107/66 237/90/237
f 73/111/73 247/353/247 85/133/85
f 62/91/62 247/353/247 73/111/73
f 243/108/243 66/107/66 78/123/78
f 73/111/73 85/133/85 79/109/79
f 206/354/206 242/94/242 77/355/77
f 77/355/77 242/94/242 76/128/76
f 64/103/64 67/96/67 71/100/71
f 72/116/72 71/100/71 75/119/75
f 65/105/65 64/103/64 72/116/72
f 245/106/245 65/105/65 81/122/81
f 62/91/62 252/118/252 247/353/247
f 81/122/81 72/116/72 87/120/87
f 247/353/247 252/118/252 253/141/253
f 247/353/247 253/141/253 85/133/85
f 79/109/79 85/133/85 84/129/84
f 79/109/79 84/129/84 70/110/70
f 71/100/71 70/110/70 75/119/75
f 75/119/75 70/110/70 86/130/86
f 83/124/83 254/140/254 248/132/248
f 243/108/243 82/126/82 249/127/249
f 86/130/86 84/129/84 92/135/92
f 249/127/249 209/356/209 77/357/77
f 75/119/75 86/130/86 93/136/93
f 69/75/69 208/358/208 250/121/250
f 244/117/244 250/121/250 252/118/252
f 246/125/246 251/139/251 90/143/90
f 246/125/246 90/143/90 254/140/254
f 90/143/90 89/142/89 259/159/259
f 90/143/90 259/159/259 96/145/96
f 90/143/90 96/145/96 254/140/254
f 253/141/253 260/144/260 257/147/257
f 254/140/254 255/146/255 248/132/248
f 256/134/256 257/147/257 91/148/91
f 93/136/93 92/135/92 88/149/88
f 80/137/80 93/136/93 88/149/88
f 91/148/91 257/147/257 99/155/99
f 257/147/257 100/162/100 99/155/99
f 249/127/249 82/126/82 103/153/103
f 209/356/209 249/127/249 263/154/263
f 95/157/95 88/149/88 258/156/258
f 88/149/88 91/148/91 258/156/258
f 271/359/271 208/360/208 3/361/3
f 80/137/80 88/149/88 95/157/95
f 208/360/208 94/160/94 250/121/250
f 208/360/208 271/362/271 94/160/94
f 250/121/250 94/160/94 97/138/97
f 89/142/89 95/157/95 261/158/261
f 259/159/259 261/158/261 262/164/262
f 262/164/262 265/163/265 105/165/105
f 259/159/259 262/164/262 96/145/96
f 97/138/97 264/161/264 100/162/100
f 255/146/255 96/145/96 105/165/105
f 258/156/258 99/155/99 104/169/104
f 98/168/98 258/156/258 104/169/104
f 95/157/95 258/156/258 98/168/98
f 263/154/263 103/153/103 110/181/110
f 209/363/209 111/173/111 206/364/206
f 261/158/261 98/168/98 270/171/270
f 261/158/261 112/174/112 265/163/265
f 94/160/94 116/179/116 264/161/264
f 101/166/101 264/161/264 116/179/116
f 267/167/267 105/165/105 266/177/266
f 104/169/104 100/162/100 101/166/101
f 265/163/265 268/175/268 266/177/266
f 268/175/268 108/188/108 275/176/275
f 267/167/267 266/177/266 110/181/110
f 106/185/106 102/170/102 269/178/269
f 273/182/273 110/181/110 277/183/277
f 103/153/103 267/167/267 110/181/110
f 111/173/111 263/154/263 273/182/273
f 270/171/270 107/186/107 272/187/272
f 272/187/272 107/186/107 115/192/115
f 116/179/116 94/160/94 271/193/271
f 112/174/112 272/187/272 268/175/268
f 107/186/107 106/185/106 121/189/121
f 123/365/123 111/366/111 273/182/273
f 107/186/107 113/190/113 115/192/115
f 111/367/111 123/365/123 206/368/206
f 115/192/115 278/191/278 114/196/114
f 279/198/279 271/193/271 124/195/124
f 116/179/116 271/193/271 279/198/279
f 108/188/108 114/196/114 118/222/118
f 108/188/108 128/203/128 120/197/120
f 108/188/108 118/222/118 128/203/128
f 275/176/275 120/197/120 276/199/276
f 132/205/132 277/183/277 276/199/276
f 106/185/106 269/178/269 119/200/119
f 279/198/279 117/201/117 274/180/274
f 119/200/119 274/180/274 117/201/117
f 130/369/130 119/200/119 129/202/129
f 121/189/121 119/200/119 130/369/130
f 120/197/120 286/224/286 276/199/276
f 132/205/132 276/199/276 131/225/131
f 125/206/125 121/189/121 130/369/130
f 113/190/113 121/189/121 122/207/122
f 273/182/273 109/184/109 148/227/148
f 123/210/123 273/182/273 148/227/148
f 113/190/113 122/207/122 278/191/278
f 126/208/126 122/207/122 5/216/5
f 148/370/148 211/371/211 123/210/123
f 114/196/114 278/191/278 127/219/127
f 278/191/278 126/208/126 127/219/127
f 114/196/114 127/219/127 118/222/118
f 279/198/279 151/212/151 117/201/117
f 211/372/211 148/227/148 137/245/137
f 127/219/127 283/215/283 280/220/280
f 151/212/151 210/373/210 213/374/213
f 129/202/129 117/201/117 284/228/284
f 284/228/284 117/201/117 144/223/144
f 120/197/120 134/204/134 286/224/286
f 125/206/125 130/369/130 135/231/135
f 135/231/135 130/369/130 129/202/129
f 109/184/109 132/205/132 281/226/281
f 132/205/132 131/225/131 281/226/281
f 286/224/286 134/204/134 145/237/145
f 131/225/131 146/232/146 281/226/281
f 135/231/135 287/229/287 147/243/147
f 135/231/135 147/243/147 136/233/136
f 5/216/5 125/206/125 136/233/136
f 136/233/136 288/247/288 282/214/282
f 282/214/282 5/216/5 136/233/136
f 133/236/133 283/215/283 285/234/285
f 280/220/280 283/215/283 133/236/133
f 138/221/138 143/235/143 134/204/134
f 284/228/284 144/223/144 139/230/139
f 6/242/6 206/375/206 211/246/211
f 285/234/285 288/247/288 142/252/142
f 151/212/151 213/376/213 212/265/212
f 152/238/152 285/234/285 291/255/291
f 144/223/144 151/212/151 157/257/157
f 145/237/145 143/235/143 152/238/152
f 145/237/145 152/238/152 292/261/292
f 139/230/139 144/223/144 157/257/157
f 145/237/145 292/261/292 289/239/289
f 286/224/286 289/239/289 146/232/146
f 154/241/154 146/232/146 289/239/289
f 287/229/287 141/250/141 147/243/147
f 141/250/141 287/229/287 140/240/140
f 147/243/147 141/250/141 290/244/290
f 148/227/148 146/232/146 154/241/154
f 136/233/136 290/244/290 288/247/288
f 7/248/7 140/240/140 149/262/149
f 140/240/140 139/230/139 149/262/149
f 6/242/6 154/241/154 150/270/150
f 141/250/141 294/251/294 290/244/290
f 294/251/294 141/250/141 295/249/295
f 210/377/210 212/265/212 213/378/213
f 157/257/157 151/212/151 164/258/164
f 289/239/289 292/261/292 158/267/158
f 155/256/155 296/379/296 293/260/293
f 149/262/149 157/257/157 153/259/153
f 7/248/7 149/262/149 153/259/153
f 294/251/294 163/269/163 156/263/156
f 142/252/142 156/263/156 155/256/155
f 162/274/162 158/273/158 161/291/161
f 150/275/150 154/380/154 162/274/162
f 156/381/156 163/277/163 160/302/160
f 155/382/155 160/302/160 296/283/296
f 296/283/296 297/292/297 166/284/166
f 153/289/153 164/286/164 174/287/174
f 293/285/293 166/284/166 158/273/158
f 159/278/159 165/290/165 303/312/303
f 297/292/297 172/307/172 302/293/302
f 165/290/165 174/287/174 173/294/173
f 167/279/167 159/278/159 303/312/303
f 163/277/163 167/279/167 299/300/299
f 150/275/150 181/297/181 301/298/301
f 307/336/307 212/281/212 210/383/210
f 160/302/160 300/301/300 296/283/296
f 167/279/167 303/312/303 170/303/170
f 299/300/299 170/303/170 184/304/184
f 170/303/170 177/316/177 184/304/184
f 168/299/168 301/298/301 214/345/214
f 299/300/299 8/305/8 300/301/300
f 168/384/168 214/345/214 206/385/206
f 172/307/172 300/301/300 9/306/9
f 171/282/171 212/281/212 307/336/307
f 172/307/172 9/306/9 169/308/169
f 303/312/303 165/290/165 176/295/176
f 304/309/304 169/308/169 308/314/308
f 183/310/183 304/309/304 179/324/179
f 173/294/173 182/323/182 176/295/176
f 180/315/180 183/310/183 179/324/179
f 175/296/175 180/315/180 306/313/306
f 170/303/170 305/311/305 177/316/177
f 298/276/298 306/313/306 181/297/181
f 178/318/178 8/305/8 184/304/184
f 9/306/9 8/305/8 178/318/178
f 306/313/306 197/331/197 181/297/181
f 178/318/178 188/317/188 186/319/186
f 186/319/186 188/317/188 185/334/185
f 9/306/9 178/318/178 186/319/186
f 179/324/179 304/309/304 187/321/187
f 304/309/304 308/314/308 187/321/187
f 179/324/179 187/321/187 310/340/310
f 176/295/176 182/323/182 309/326/309
f 182/323/182 192/322/192 309/326/309
f 306/313/306 180/315/180 197/331/197
f 179/324/179 310/340/310 196/325/196
f 309/326/309 194/329/194 316/330/316
f 311/327/311 316/330/316 317/332/317
f 10/333/10 197/331/197 195/342/195
f 214/345/214 301/298/301 1/28/1
f 193/386/193 307/387/307 210/388/210
f 308/314/308 186/319/186 312/320/312
f 312/320/312 186/319/186 189/335/189
f 187/321/187 312/320/312 190/337/190
f 187/321/187 190/337/190 310/340/310
f 171/282/171 12/5/12 192/322/192
f 189/335/189 317/332/317 313/389/313
f 189/335/189 313/389/313 11/349/11
f 189/335/189 11/349/11 314/338/314
f 307/336/307 193/350/193 12/5/12
f 190/337/190 314/338/314 315/339/315
f 192/322/192 12/5/12 199/7/199
f 310/340/310 315/339/315 196/325/196
f 196/325/196 200/341/200 191/328/191
f 316/330/316 194/329/194 215/390/215
f 194/329/194 319/18/319 215/390/215
f 316/330/316 215/390/215 201/343/201
f 313/389/313 317/332/317 201/343/201
f 194/329/194 199/7/199 319/18/319
f 215/390/215 319/18/319 13/344/13
f 195/342/195 191/328/191 198/11/198
f 191/328/191 200/341/200 204/8/204
f 198/11/198 191/328/191 204/8/204
f 201/343/201 215/390/215 13/344/13
f 10/333/10 195/342/195 205/29/205
f 15/351/15 201/343/201 14/26/14
f 11/349/11 313/389/313 15/351/15
f 313/389/313 201/343/201 15/351/15
f 217/391/217 193/350/193 210/347/210
f 214/392/214 202/30/202 206/393/206
f 314/338/314 218/4/218 315/339/315
f 315/339/315 218/4/218 318/3/318
